<?xml version="1.0" standalone="no"?>
<!DOCTYPE svg PUBLIC "-//W3C//DTD SVG 1.1//EN"
"http://www.w3.org/Graphics/SVG/1.1/DTD/svg11.dtd">

<svg width="314" height="476" view_box="0 0 314 476"
xmlns="http://www.w3.org/2000/svg"
xmlns:link="http://www.w3.org/1999/xlink">\n\n<desc>Généré par Mocodo 2.3.7 le Thu, 28 Nov 2019 23:51:55</desc>

<rect id="frame" x="0" y="0" width="314" height="476" fill="none" stroke="none" stroke-width="0"/>

<!-- Association made -->
<line x1="150" y1="221" x2="53" y2="221" stroke="#726f83" stroke-width="2"/>
<text x="84" y="238.0" fill="#726f83" font-family="Verdana" font-size="12">0,1</text>
<line x1="53" y1="60" x2="53" y2="221" stroke="#726f83" stroke-width="2"/>
<text x="58.0" y="128" fill="#726f83" font-family="Verdana" font-size="12">0,N</text>
<g id="association-made">
	<path d="M 64 196 a 14 14 90 0 1 14 14 V 221 h -50 V 210 a 14 14 90 0 1 14 -14" fill="#b2bba4" stroke="#b2bba4" stroke-width="0"/>
	<path d="M 78 221.0 v 11 a 14 14 90 0 1 -14 14 H 42 a 14 14 90 0 1 -14 -14 V 221.0 H 50" fill="#ccd6ba" stroke="#ccd6ba" stroke-width="0"/>
	<rect x="28" y="196" width="50" height="50" fill="none" rx="14" stroke="#85956b" stroke-width="2"/>
	<line x1="28" y1="221" x2="78" y2="221" stroke="#85956b" stroke-width="1"/>
	<text x="35" y="213.7" fill="#27360c" font-family="Verdana" font-size="12">made</text>
</g>

<!-- Association is a -->
<line x1="150" y1="221" x2="150" y2="60" stroke="#726f83" stroke-width="2"/>
<text x="155.0" y="128" fill="#726f83" font-family="Verdana" font-size="12">0,1</text>
<line x1="261" y1="60" x2="150" y2="60" stroke="#726f83" stroke-width="2"/>
<text x="190" y="77.0" fill="#726f83" font-family="Verdana" font-size="12">0,N</text>
<g id="association-is a">
	<path d="M 154 35 a 14 14 90 0 1 14 14 V 60 h -36 V 49 a 14 14 90 0 1 14 -14" fill="#b2bba4" stroke="#b2bba4" stroke-width="0"/>
	<path d="M 168 60.0 v 11 a 14 14 90 0 1 -14 14 H 146 a 14 14 90 0 1 -14 -14 V 60.0 H 36" fill="#ccd6ba" stroke="#ccd6ba" stroke-width="0"/>
	<rect x="132" y="35" width="36" height="50" fill="none" rx="14" stroke="#85956b" stroke-width="2"/>
	<line x1="132" y1="60" x2="168" y2="60" stroke="#85956b" stroke-width="1"/>
	<text x="139" y="52.7" fill="#27360c" font-family="Verdana" font-size="12">is a</text>
</g>

<!-- Association belongs to -->
<line x1="150" y1="221" x2="261" y2="221" stroke="#726f83" stroke-width="2"/>
<text x="195" y="238.0" fill="#726f83" font-family="Verdana" font-size="12">0,1</text>
<line x1="261" y1="399" x2="261" y2="221" stroke="#726f83" stroke-width="2"/>
<text x="266.0" y="323" fill="#726f83" font-family="Verdana" font-size="12">0,N</text>
<g id="association-belongs to">
	<path d="M 286 196 a 14 14 90 0 1 14 14 V 221 h -78 V 210 a 14 14 90 0 1 14 -14" fill="#b2bba4" stroke="#b2bba4" stroke-width="0"/>
	<path d="M 300 221.0 v 11 a 14 14 90 0 1 -14 14 H 236 a 14 14 90 0 1 -14 -14 V 221.0 H 78" fill="#ccd6ba" stroke="#ccd6ba" stroke-width="0"/>
	<rect x="222" y="196" width="78" height="50" fill="none" rx="14" stroke="#85956b" stroke-width="2"/>
	<line x1="222" y1="221" x2="300" y2="221" stroke="#85956b" stroke-width="1"/>
	<text x="229" y="213.7" fill="#27360c" font-family="Verdana" font-size="12">belongs to</text>
</g>

<!-- Entity CATEGORY -->
<g id="entity-CATEGORY">
	<g id="frame-CATEGORY">
		<rect x="218" y="331" width="86" height="25" fill="#97b8ff" stroke="#97b8ff" stroke-width="0"/>
		<rect x="218" y="356.0" width="86" height="111" fill="#c0d4ff" stroke="#c0d4ff" stroke-width="0"/>
		<rect x="218" y="331" width="86" height="136" fill="none" stroke="#578dff" stroke-width="2"/>
		<line x1="218" y1="356" x2="304" y2="356" stroke="#578dff" stroke-width="1"/>
	</g>
	<text x="227" y="348.7" fill="#131114" font-family="Verdana" font-size="12">CATEGORY</text>
	<text x="223" y="373.7" fill="#3e3c42" font-family="Verdana" font-size="12">name</text>
	<line x1="223" y1="376" x2="258" y2="376" stroke="#3e3c42" stroke-width="1"/>
	<text x="223" y="390.7" fill="#3e3c42" font-family="Verdana" font-size="12">subtitle</text>
	<text x="223" y="407.8" fill="#3e3c42" font-family="Verdana" font-size="12">picture</text>
	<text x="223" y="424.8" fill="#3e3c42" font-family="Verdana" font-size="12">home_order</text>
	<text x="223" y="441.8" fill="#3e3c42" font-family="Verdana" font-size="12">created_at</text>
	<text x="223" y="458.8" fill="#3e3c42" font-family="Verdana" font-size="12">updated_at</text>
</g>

<!-- Entity BRAND -->
<g id="entity-BRAND">
	<g id="frame-BRAND">
		<rect x="9" y="9" width="88" height="25" fill="#97b8ff" stroke="#97b8ff" stroke-width="0"/>
		<rect x="9" y="34.0" width="88" height="77" fill="#c0d4ff" stroke="#c0d4ff" stroke-width="0"/>
		<rect x="9" y="9" width="88" height="102" fill="none" stroke="#578dff" stroke-width="2"/>
		<line x1="9" y1="34" x2="97" y2="34" stroke="#578dff" stroke-width="1"/>
	</g>
	<text x="31" y="26.7" fill="#131114" font-family="Verdana" font-size="12">BRAND</text>
	<text x="14" y="51.7" fill="#3e3c42" font-family="Verdana" font-size="12">name</text>
	<line x1="14" y1="54" x2="49" y2="54" stroke="#3e3c42" stroke-width="1"/>
	<text x="14" y="68.8" fill="#3e3c42" font-family="Verdana" font-size="12">footer_order</text>
	<text x="14" y="85.8" fill="#3e3c42" font-family="Verdana" font-size="12">created_at</text>
	<text x="14" y="102.8" fill="#3e3c42" font-family="Verdana" font-size="12">updated_at</text>
</g>

<!-- Entity TYPE -->
<g id="entity-TYPE">
	<g id="frame-TYPE">
		<rect x="217" y="9" width="88" height="25" fill="#97b8ff" stroke="#97b8ff" stroke-width="0"/>
		<rect x="217" y="34.0" width="88" height="77" fill="#c0d4ff" stroke="#c0d4ff" stroke-width="0"/>
		<rect x="217" y="9" width="88" height="102" fill="none" stroke="#578dff" stroke-width="2"/>
		<line x1="217" y1="34" x2="305" y2="34" stroke="#578dff" stroke-width="1"/>
	</g>
	<text x="245" y="26.7" fill="#131114" font-family="Verdana" font-size="12">TYPE</text>
	<text x="222" y="51.7" fill="#3e3c42" font-family="Verdana" font-size="12">name</text>
	<line x1="222" y1="54" x2="257" y2="54" stroke="#3e3c42" stroke-width="1"/>
	<text x="222" y="68.8" fill="#3e3c42" font-family="Verdana" font-size="12">footer_order</text>
	<text x="222" y="85.8" fill="#3e3c42" font-family="Verdana" font-size="12">created_at</text>
	<text x="222" y="102.8" fill="#3e3c42" font-family="Verdana" font-size="12">update_at</text>
</g>

<!-- Entity PRODUCT -->
<g id="entity-PRODUCT">
	<g id="frame-PRODUCT">
		<rect x="110" y="136" width="80" height="25" fill="#97b8ff" stroke="#97b8ff" stroke-width="0"/>
		<rect x="110" y="161.0" width="80" height="145" fill="#c0d4ff" stroke="#c0d4ff" stroke-width="0"/>
		<rect x="110" y="136" width="80" height="170" fill="none" stroke="#578dff" stroke-width="2"/>
		<line x1="110" y1="161" x2="190" y2="161" stroke="#578dff" stroke-width="1"/>
	</g>
	<text x="120" y="153.7" fill="#131114" font-family="Verdana" font-size="12">PRODUCT</text>
	<text x="115" y="178.7" fill="#3e3c42" font-family="Verdana" font-size="12">name</text>
	<line x1="115" y1="181" x2="150" y2="181" stroke="#3e3c42" stroke-width="1"/>
	<text x="115" y="195.7" fill="#3e3c42" font-family="Verdana" font-size="12">description</text>
	<text x="115" y="212.7" fill="#3e3c42" font-family="Verdana" font-size="12">picture</text>
	<text x="115" y="229.8" fill="#3e3c42" font-family="Verdana" font-size="12">price</text>
	<text x="115" y="246.8" fill="#3e3c42" font-family="Verdana" font-size="12">rate</text>
	<text x="115" y="263.8" fill="#3e3c42" font-family="Verdana" font-size="12">status</text>
	<text x="115" y="280.8" fill="#3e3c42" font-family="Verdana" font-size="12">created_at</text>
	<text x="115" y="297.8" fill="#3e3c42" font-family="Verdana" font-size="12">updated_at</text>
</g>
</svg>