<?xml version="1.0" encoding="utf-8"?>
<!-- Generated by Mocodo 4.2.1 -->
<svg width="552" height="473" viewBox="0 0 552 473" xmlns="http://www.w3.org/2000/svg">
<rect x="0" y="0" width="552" height="473" fill="#f7f7f7" stroke="none" stroke-width="0"/>

<!-- Association IS_TAGGED_AS -->
<g>
	<line x1="255" y1="43" x2="255" y2="127" stroke="#4393c3" stroke-width="2"/>
	<line x1="255" y1="253" x2="255" y2="127" stroke="#4393c3" stroke-width="2"/>
	<g>
		<path d="M285 102 a14 14 90 0 1 14 14 V127 h-88 V116 a14 14 90 0 1 14 -14" fill="#92c5de" stroke="#92c5de" stroke-width="0"/>
		<path d="M299 127 v11 a14 14 90 0 1 -14 14 H225 a14 14 90 0 1 -14 -14 V127 H88" fill="#d1e5f0" stroke="#d1e5f0" stroke-width="0"/>
		<rect x="211" y="102" width="88" height="50" fill="none" rx="14" stroke="#4393c3" stroke-width="2"/>
		<line x1="211" y1="127" x2="299" y2="127" stroke="#4393c3" stroke-width="1"/>
		<text x="218" y="119.75" fill="#000000" font-family="Verdana" font-size="12">is tagged as</text>
	</g>
	<text x="260" y="94" fill="#b2182b" font-family="Verdana" font-size="12">0,N</text>
	<text x="260" y="169" fill="#b2182b" font-family="Verdana" font-size="12">0,N</text>
</g>

<!-- Association MADE -->
<g>
	<line x1="51" y1="253" x2="150" y2="253" stroke="#4393c3" stroke-width="2"/>
	<line x1="255" y1="253" x2="150" y2="253" stroke="#4393c3" stroke-width="2"/>
	<g>
		<path d="M161 228 a14 14 90 0 1 14 14 V253 h-50 V242 a14 14 90 0 1 14 -14" fill="#92c5de" stroke="#92c5de" stroke-width="0"/>
		<path d="M175 253 v11 a14 14 90 0 1 -14 14 H139 a14 14 90 0 1 -14 -14 V253 H50" fill="#d1e5f0" stroke="#d1e5f0" stroke-width="0"/>
		<rect x="125" y="228" width="50" height="50" fill="none" rx="14" stroke="#4393c3" stroke-width="2"/>
		<line x1="125" y1="253" x2="175" y2="253" stroke="#4393c3" stroke-width="1"/>
		<text x="133" y="245.75" fill="#000000" font-family="Verdana" font-size="12">made</text>
	</g>
	<text x="98" y="270" fill="#b2182b" font-family="Verdana" font-size="12">0,N</text>
	<text x="181" y="270" fill="#b2182b" font-family="Verdana" font-size="12">1,1</text>
</g>

<!-- Association RELATED_TO -->
<g>
	<line x1="255" y1="253" x2="372" y2="253" stroke="#4393c3" stroke-width="2"/>
	<line x1="492" y1="253" x2="372" y2="253" stroke="#4393c3" stroke-width="2"/>
	<g>
		<path d="M395 228 a14 14 90 0 1 14 14 V253 h-74 V242 a14 14 90 0 1 14 -14" fill="#92c5de" stroke="#92c5de" stroke-width="0"/>
		<path d="M409 253 v11 a14 14 90 0 1 -14 14 H349 a14 14 90 0 1 -14 -14 V253 H74" fill="#d1e5f0" stroke="#d1e5f0" stroke-width="0"/>
		<rect x="335" y="228" width="74" height="50" fill="none" rx="14" stroke="#4393c3" stroke-width="2"/>
		<line x1="335" y1="253" x2="409" y2="253" stroke="#4393c3" stroke-width="1"/>
		<text x="343" y="245.75" fill="#000000" font-family="Verdana" font-size="12">related to</text>
	</g>
	<text x="308" y="270" fill="#b2182b" font-family="Verdana" font-size="12">0,1</text>
	<text x="414" y="270" fill="#b2182b" font-family="Verdana" font-size="12">0,N</text>
</g>

<!-- Association IS_A -->
<g>
	<line x1="150" y1="388" x2="255" y2="388" stroke="#4393c3" stroke-width="2"/>
	<line x1="255" y1="253" x2="255" y2="388" stroke="#4393c3" stroke-width="2"/>
	<g>
		<path d="M259 363 a14 14 90 0 1 14 14 V388 h-36 V377 a14 14 90 0 1 14 -14" fill="#92c5de" stroke="#92c5de" stroke-width="0"/>
		<path d="M273 388 v11 a14 14 90 0 1 -14 14 H251 a14 14 90 0 1 -14 -14 V388 H36" fill="#d1e5f0" stroke="#d1e5f0" stroke-width="0"/>
		<rect x="237" y="363" width="36" height="50" fill="none" rx="14" stroke="#4393c3" stroke-width="2"/>
		<line x1="237" y1="388" x2="273" y2="388" stroke="#4393c3" stroke-width="1"/>
		<text x="244" y="380.75" fill="#000000" font-family="Verdana" font-size="12">is a</text>
	</g>
	<text x="193" y="405" fill="#b2182b" font-family="Verdana" font-size="12">0,N</text>
	<text x="260" y="346" fill="#b2182b" font-family="Verdana" font-size="12">1,1</text>
</g>

<!-- Entity TAG -->
<g>
	<g>
		<rect x="221" y="9" width="68" height="25" fill="#f4a582" stroke="none" stroke-width="0" opacity="1"/>
		<rect x="221" y="34" width="68" height="43" fill="#fddbc7" stroke="none" stroke-width="0" opacity="1"/>
		<rect x="221" y="9" width="68" height="68" fill="none" stroke="#d6604d" stroke-width="2" opacity="1"/>
		<line x1="221" y1="34" x2="289" y2="34" stroke="#d6604d" stroke-width="1"/>
	</g>
	<text x="242" y="26.75" fill="#000000" font-family="Verdana" font-size="12">TAG</text>
	<text x="226" y="51.8" fill="#000000" font-family="Verdana" font-size="12">tag code</text>
	<line x1="226" y1="54" x2="279" y2="54" stroke="#000000" stroke-width="1"/>
	<text x="226" y="68.8" fill="#000000" font-family="Verdana" font-size="12">tag name</text>
</g>

<!-- Entity BRAND -->
<g>
	<g>
		<rect x="9" y="219" width="84" height="25" fill="#f4a582" stroke="none" stroke-width="0" opacity="1"/>
		<rect x="9" y="244" width="84" height="43" fill="#fddbc7" stroke="none" stroke-width="0" opacity="1"/>
		<rect x="9" y="219" width="84" height="68" fill="none" stroke="#d6604d" stroke-width="2" opacity="1"/>
		<line x1="9" y1="244" x2="93" y2="244" stroke="#d6604d" stroke-width="1"/>
	</g>
	<text x="29" y="236.75" fill="#000000" font-family="Verdana" font-size="12">BRAND</text>
	<text x="14" y="261.8" fill="#000000" font-family="Verdana" font-size="12">brand code</text>
	<line x1="14" y1="264" x2="82" y2="264" stroke="#000000" stroke-width="1"/>
	<text x="14" y="278.8" fill="#000000" font-family="Verdana" font-size="12">brand name</text>
</g>

<!-- Entity PRODUCT -->
<g>
	<g>
		<rect x="207" y="177" width="96" height="25" fill="#f4a582" stroke="none" stroke-width="0" opacity="1"/>
		<rect x="207" y="202" width="96" height="127" fill="#fddbc7" stroke="none" stroke-width="0" opacity="1"/>
		<rect x="207" y="177" width="96" height="152" fill="none" stroke="#d6604d" stroke-width="2" opacity="1"/>
		<line x1="207" y1="202" x2="303" y2="202" stroke="#d6604d" stroke-width="1"/>
	</g>
	<text x="225" y="194.75" fill="#000000" font-family="Verdana" font-size="12">PRODUCT</text>
	<text x="212" y="219.8" fill="#000000" font-family="Verdana" font-size="12">product code</text>
	<line x1="212" y1="222" x2="291" y2="222" stroke="#000000" stroke-width="1"/>
	<text x="212" y="236.8" fill="#000000" font-family="Verdana" font-size="12">product name</text>
	<text x="212" y="253.8" fill="#000000" font-family="Verdana" font-size="12">description</text>
	<text x="212" y="270.8" fill="#000000" font-family="Verdana" font-size="12">picture</text>
	<text x="212" y="287.8" fill="#000000" font-family="Verdana" font-size="12">price</text>
	<text x="212" y="304.8" fill="#000000" font-family="Verdana" font-size="12">rate</text>
	<text x="212" y="321.8" fill="#000000" font-family="Verdana" font-size="12">status</text>
</g>

<!-- Entity CATEGORY -->
<g>
	<g>
		<rect x="441" y="194" width="102" height="25" fill="#f4a582" stroke="none" stroke-width="0" opacity="1"/>
		<rect x="441" y="219" width="102" height="93" fill="#fddbc7" stroke="none" stroke-width="0" opacity="1"/>
		<rect x="441" y="194" width="102" height="118" fill="none" stroke="#d6604d" stroke-width="2" opacity="1"/>
		<line x1="441" y1="219" x2="543" y2="219" stroke="#d6604d" stroke-width="1"/>
	</g>
	<text x="459" y="211.75" fill="#000000" font-family="Verdana" font-size="12">CATEGORY</text>
	<text x="446" y="236.8" fill="#000000" font-family="Verdana" font-size="12">category code</text>
	<line x1="446" y1="239" x2="532" y2="239" stroke="#000000" stroke-width="1"/>
	<text x="446" y="253.8" fill="#000000" font-family="Verdana" font-size="12">category name</text>
	<text x="446" y="270.8" fill="#000000" font-family="Verdana" font-size="12">subtitle</text>
	<text x="446" y="287.8" fill="#000000" font-family="Verdana" font-size="12">picture</text>
	<text x="446" y="304.8" fill="#000000" font-family="Verdana" font-size="12">home order</text>
</g>

<!-- Entity TYPE -->
<g>
	<g>
		<rect x="112" y="354" width="76" height="25" fill="#f4a582" stroke="none" stroke-width="0" opacity="1"/>
		<rect x="112" y="379" width="76" height="43" fill="#fddbc7" stroke="none" stroke-width="0" opacity="1"/>
		<rect x="112" y="354" width="76" height="68" fill="none" stroke="#d6604d" stroke-width="2" opacity="1"/>
		<line x1="112" y1="379" x2="188" y2="379" stroke="#d6604d" stroke-width="1"/>
	</g>
	<text x="135" y="371.75" fill="#000000" font-family="Verdana" font-size="12">TYPE</text>
	<text x="117" y="396.8" fill="#000000" font-family="Verdana" font-size="12">type code</text>
	<line x1="117" y1="399" x2="177" y2="399" stroke="#000000" stroke-width="1"/>
	<text x="117" y="413.8" fill="#000000" font-family="Verdana" font-size="12">type name</text>
</g>

<!-- Entity APP_USER -->
<g>
	<g>
		<rect x="335" y="312" width="74" height="25" fill="#f4a582" stroke="none" stroke-width="0" opacity="1"/>
		<rect x="335" y="337" width="74" height="127" fill="#fddbc7" stroke="none" stroke-width="0" opacity="1"/>
		<rect x="335" y="312" width="74" height="152" fill="none" stroke="#d6604d" stroke-width="2" opacity="1"/>
		<line x1="335" y1="337" x2="409" y2="337" stroke="#d6604d" stroke-width="1"/>
	</g>
	<text x="340" y="329.75" fill="#000000" font-family="Verdana" font-size="12">APP_USER</text>
	<text x="340" y="354.8" fill="#000000" font-family="Verdana" font-size="12">user code</text>
	<line x1="340" y1="357" x2="399" y2="357" stroke="#000000" stroke-width="1"/>
	<text x="340" y="371.8" fill="#000000" font-family="Verdana" font-size="12">email</text>
	<text x="340" y="388.8" fill="#000000" font-family="Verdana" font-size="12">password</text>
	<text x="340" y="405.8" fill="#000000" font-family="Verdana" font-size="12">firstname</text>
	<text x="340" y="422.8" fill="#000000" font-family="Verdana" font-size="12">lastname</text>
	<text x="340" y="439.8" fill="#000000" font-family="Verdana" font-size="12">role</text>
	<text x="340" y="456.8" fill="#000000" font-family="Verdana" font-size="12">status</text>
</g>
</svg>